<?xml version="1.0" encoding="iso-8859-1"?>
<!-- Generator: Adobe Illustrator 19.0.0, SVG Export Plug-In . SVG Version: 6.00 Build 0)  -->
<svg version="1.1" id="Layer_1" xmlns="http://www.w3.org/2000/svg" xmlns:xlink="http://www.w3.org/1999/xlink" x="0px" y="0px"
	 viewBox="0 0 512.001 512.001" style="enable-background:new 0 0 512.001 512.001;" xml:space="preserve">
<path style="fill:#FFDB66;" d="M285.608,58.746l222.027,396.958c12.648,22.612-3.698,50.484-29.607,50.484H33.973
	c-25.909,0-42.255-27.872-29.607-50.484L226.393,58.746C239.342,35.594,272.658,35.594,285.608,58.746z M91.817,455.302h328.366
	c12.955,0,21.127-13.935,14.803-25.241L270.804,136.52c-6.474-11.575-23.133-11.575-29.607,0L77.014,430.06
	C70.69,441.366,78.862,455.302,91.817,455.302z"/>
<g>
	<path style="fill:#56677E;" d="M270.804,136.52l31.25,55.872h58.304l-33.205-59.367h-58.931
		C269.193,134.043,270.068,135.203,270.804,136.52z"/>
	<path style="fill:#56677E;" d="M241.197,136.52c0.737-1.318,1.611-2.477,2.581-3.494h-58.931l-33.205,59.367h58.304L241.197,136.52
		z"/>
	<polygon style="fill:#56677E;" points="368.465,311.126 426.769,311.126 393.564,251.76 335.259,251.76 	"/>
	<polygon style="fill:#56677E;" points="176.741,251.76 118.437,251.76 85.232,311.126 143.536,311.126 	"/>
	<polygon style="fill:#56677E;" points="434.875,429.859 493.179,429.859 459.974,370.493 401.67,370.493 	"/>
	<polygon style="fill:#56677E;" points="110.331,370.493 52.027,370.493 18.822,429.859 77.126,429.859 	"/>
	<polygon style="fill:#56677E;" points="100.148,455.302 72.441,506.188 140.037,506.188 167.744,455.302 	"/>
	<polygon style="fill:#56677E;" points="220.605,455.302 192.898,506.188 260.494,506.188 288.201,455.302 	"/>
	<polygon style="fill:#56677E;" points="341.062,455.302 313.355,506.188 380.952,506.188 408.658,455.302 	"/>
	<path style="fill:#56677E;" d="M256.001,272.399c-4.684,0-8.481-3.797-8.481-8.481v-16.962c0-18.706,15.218-33.924,33.924-33.924
		H425.62c9.352,0,16.962-7.61,16.962-16.962v-33.924c0-4.684,3.797-8.481,8.481-8.481s8.481,3.797,8.481,8.481v33.924
		c0,18.706-15.218,33.924-33.924,33.924H281.444c-9.352,0-16.962,7.61-16.962,16.962v16.962
		C264.482,268.602,260.684,272.399,256.001,272.399z"/>
</g>
<circle style="fill:#FF8C78;" cx="255.998" cy="340.244" r="84.809"/>
<path style="fill:#DB6B5E;" d="M289.925,399.614c-46.839,0-84.809-37.97-84.809-84.809c0-20.057,6.979-38.476,18.619-52.995
	c-30.831,12.697-52.543,43.026-52.543,78.438c0,46.839,37.97,84.809,84.809,84.809c26.782,0,50.648-12.427,66.191-31.814
	C312.242,397.34,301.351,399.614,289.925,399.614z"/>
<path style="fill:#FFE2D6;" d="M391.696,102.781c0-25.998,37.326-74.754,52.784-93.831c3.39-4.183,9.774-4.183,13.165,0
	c15.459,19.077,52.784,67.834,52.784,93.831c0,32.787-26.579,59.367-59.367,59.367S391.696,135.568,391.696,102.781z"/>
<path style="fill:#FF8C78;" d="M417.139,102.781c0-13.381,17.303-37.93,27.194-50.869c3.39-4.436,10.068-4.436,13.459,0
	c9.891,12.94,27.194,37.489,27.194,50.869c0,18.735-15.188,33.924-33.924,33.924C432.327,136.705,417.139,121.517,417.139,102.781z"
	/>
<g>
	<path style="fill:#435670;" d="M256.001,357.208c-4.684,0-8.481-3.797-8.481-8.481v-42.405c0-4.684,3.797-8.481,8.481-8.481
		c4.684,0,8.481,3.797,8.481,8.481v42.405C264.482,353.411,260.684,357.208,256.001,357.208z"/>
	<path style="fill:#435670;" d="M256.001,383.711c-4.684,0-8.481-3.797-8.481-8.481v-1.06c0-4.684,3.797-8.481,8.481-8.481
		c4.684,0,8.481,3.797,8.481,8.481v1.06C264.482,379.914,260.684,383.711,256.001,383.711z"/>
</g>
<circle style="fill:#FFD6C4;" cx="298.402" cy="311.123" r="16.962"/>
<g>
</g>
<g>
</g>
<g>
</g>
<g>
</g>
<g>
</g>
<g>
</g>
<g>
</g>
<g>
</g>
<g>
</g>
<g>
</g>
<g>
</g>
<g>
</g>
<g>
</g>
<g>
</g>
<g>
</g>
</svg>
